<svg xmlns="http://www.w3.org/2000/svg" viewBox="0 0 300 60" fill="none">
  <!-- Rocket Icon -->
  <g transform="translate(4, 4)">
    <circle cx="26" cy="26" r="24" fill="#5B3FD9"/>
    <path d="M 26 12 L 22 26 L 30 26 Z" fill="white"/>
    <path d="M 26 10 L 22 12 L 30 12 Z" fill="white"/>
    <path d="M 22 22 L 18 26 L 22 26 Z" fill="rgba(255,255,255,0.8)"/>
    <path d="M 30 22 L 34 26 L 30 26 Z" fill="rgba(255,255,255,0.8)"/>
    <circle cx="26" cy="17" r="2" fill="#5B3FD9" stroke="white" stroke-width="0.8"/>
    <path d="M 22 26 L 21 31 L 22 27 Z" fill="#FF6B35"/>
    <path d="M 25 26 L 26 34 L 27 26 Z" fill="#FFB347"/>
    <path d="M 30 26 L 31 31 L 30 27 Z" fill="#FF6B35"/>
    <circle cx="16" cy="16" r="0.8" fill="rgba(255,255,255,0.6)"/>
    <circle cx="36" cy="18" r="0.8" fill="rgba(255,255,255,0.6)"/>
  </g>

  <!-- FedSpace Text -->
  <text x="68" y="38" font-family="'Inter', system-ui, sans-serif" font-size="28" font-weight="700" fill="#FFFFFF">FedSpace</text>
  <text x="208" y="38" font-family="'Inter', system-ui, sans-serif" font-size="28" font-weight="700" fill="#5B3FD9">.AI</text>

  <!-- Tagline -->
  <text x="68" y="52" font-family="'Inter', system-ui, sans-serif" font-size="9" fill="#999">AI-Native GovCon OS</text>
</svg>
